<?xml version="1.0" encoding="UTF-8"?>
<svg id="Layer_1" data-name="Layer 1" xmlns="http://www.w3.org/2000/svg" xmlns:xlink="http://www.w3.org/1999/xlink" viewBox="0 0 160.97 48.45">
  <defs>
    <style>
      .cls-1 {
        fill: #231f20;
        fill-rule: evenodd;
      }

      .cls-2 {
        fill: url(#linear-gradient);
      }
    </style>
    <linearGradient id="linear-gradient" x1="80.49" y1="7.39" x2="80.49" y2="54.39" gradientUnits="userSpaceOnUse">
      <stop offset=".2" stop-color="#f4eb13"/>
      <stop offset="1" stop-color="#3d7b3b"/>
    </linearGradient>
  </defs>
  <path class="cls-1" d="M48.06,6.97c.22-.58,.07-1.6-.22-2.47-.36-.94-.87-1.81-1.6-1.81-.58-.07-.87,.65-1.02,1.45-.22,.72-.29,1.38-.22,1.96,.15,.51,.44,1.01,1.02,1.38,.72,.51,1.67,.58,2.03-.51h0Zm14.29,36.91c1.89,0,2.25-1.09,2.25-2.97,0-2.61,.07-5.58,.07-8.12h-9.93v7.69c0,2.1,.15,3.41,2.25,3.41,.36,0,.65,.22,.65,.51v.36c0,.29-.29,.51-.65,.51h-13.78c-.29,0-.58-.22-.58-.51v-.36c0-.29,.29-.51,.58-.51,1.67,0,2.03-1.96,2.03-3.41V23.28c0-1.38-.43-2.9-2.03-2.9-.29,0-.58-.29-.58-.58v-.36c0-.36,.29-.65,.58-.65h13.78c.36,0,.65,.29,.65,.65v.36c0,.29-.29,.58-.65,.58-2.54,0-2.25,.87-2.25,3.19v6.31h9.93c0-2.03-.07-4.5-.07-6.53,0-1.81-.44-2.97-2.25-2.97-.36,0-.65-.29-.65-.58v-.36c0-.36,.29-.65,.65-.65h13.78c.29,0,.58,.29,.58,.65v.36c0,.29-.29,.58-.58,.58-2.18,0-1.89,2.18-1.89,3.84v16.24c0,1.6,.07,3.41,1.89,3.41,.29,0,.58,.22,.58,.51v.36c0,.29-.29,.51-.58,.51h-13.78c-.36,0-.65-.22-.65-.51v-.36c0-.29,.29-.51,.65-.51h0Zm26.9-9.43v5.73c0,1.45,0,3.7,1.67,3.7,.36,0,.58,.22,.58,.51v.36c0,.29-.22,.51-.58,.51h-12.47c-.36,0-.58-.22-.58-.51v-.36c0-.29,.22-.51,.58-.51,1.81,0,2.18-.36,2.18-2.32V22.85c0-1.89-.36-2.47-2.18-2.47-.29,0-.58-.29-.58-.58v-.36c0-.36,.29-.65,.58-.65h15.16c7.03,0,9.94,2.1,9.94,6.45,0,3.92-3.26,6.24-6.31,7.03-.44,.14-.73,.22-1.02,.22-.8,.15-.8,0,.07,.15,.22,0,.58,.07,.94,.14,1.96,.36,3.19,1.45,4.28,3.55,.94,1.96,1.81,3.7,2.76,5.66,.65,1.23,1.81,2.54,2.47,2.54,.51,0,.72,0,.72,.73s-.43,.72-1.23,.72h-2.68c-4.71,0-5.44-1.45-7.54-5.66-.8-1.74-1.6-3.48-2.54-5.22-.36-.65-.65-.65-1.38-.65h-2.83Zm0-3.26h2.32c2.68,0,4.35-2.25,4.35-5,0-2.54-1.74-5.08-4.42-5.08h-2.25v10.08h0Zm27.63-9.86c2.47,0,4.35,2.61,4.35,5.8,0,.44-.07,.8-.14,1.16h-8.77c0-3.26,1.23-6.96,4.57-6.96h0Zm-.14-2.9c-8.41,0-12.84,5.37-12.84,12.91s5.22,12.55,12.18,12.55c5,0,9.06-2.25,11.24-5.73,.65-1.23,.65-2.03,.29-2.39-.8-.65-1.6-.51-2.76,.87-1.16,1.52-3.26,2.25-5.58,2.25-2.03,0-3.84-.73-5.08-2.03-1.67-1.74-2.1-3.84-1.96-6.16h14.58c.94,0,1.52-.36,1.81-.94,.36-.65,.36-1.6,.22-2.54-1.23-5.95-5.15-8.77-12.11-8.77h0Zm31.54,28.64c1.02,0,.94-1.16,.58-1.81l-8.85-13.13v10.37c0,.73,.22,1.67,1.38,1.67,.29,0,.58,.22,.58,.51v.36c0,.29-.29,.51-.58,.51h-12.84c-.36,0-.58-.22-.58-.51v-.36c0-.29,.22-.51,.58-.51,1.38,0,2.18-.07,2.18-1.74V22.85c0-1.81-.51-2.32-2.18-2.32-.29,0-.58-.29-.58-.65v-.29c0-.36,.29-.65,.58-.65h13.05c.29,0,.58,.29,.58,.65v.29c0,.36-.29,.65-.58,.65-1.96,0-1.6,1.89-1.6,3.34v6.38l7.54-7.61c.94-.94,.51-1.74-.73-1.96h-.87c-.22,0-.43-.29-.43-.65v-.36c0-.29,.22-.58,.43-.58h11.02c.29,0,.51,.29,.51,.58v.36c0,.36-.22,.65-.51,.65-1.6,0-2.39,.44-3.55,1.6l-7.03,6.89,9.14,13.42c.87,1.38,3.19,4.5,4.86,4.5,.29,0,.58,.22,.58,.51v.29c0,.29-.29,.51-.58,.51h-12.11c-.36,0-.58-.22-.58-.51v-.29c0-.29,.22-.51,.58-.51h0ZM1.14,7.19c-.22-.73-.07-1.81,.36-2.76,.36-1.02,1.09-1.89,1.96-1.96,.65,0,1.02,.8,1.23,1.67,.15,.8,.29,1.45,.15,2.03-.15,.58-.51,1.09-1.23,1.52-.87,.58-2.03,.65-2.47-.51h0Zm4.28,13.78c0-2.54,.87-4.57,2.32-6.24,1.01-1.16,1.09-1.96,0-3.34-1.09-1.38-2.18-1.67-3.77-1.74-1.74,0-3.26,.14-3.84-1.38-.29-.94-.07-2.54,.51-3.92,.58-1.52,1.67-2.76,2.9-2.9,.8,0,1.52,.43,2.32,1.67,1.01,1.6,2.18,4.13,3.84,5.51,2.47,1.96,3.26,2.39,5.73,1.67,2.97-.87,6.31-1.23,9.14-1.23,3.19,0,6.38,.36,9.57,.8,1.81,.22,3.48,.36,4.5,0,1.38-.8,2.39-1.96,3.26-3.19,1.02-1.52,1.74-3.05,2.54-3.99,.58-.73,1.16-1.09,1.67-1.02,1.23,.14,2.25,1.6,2.9,3.19,.36,1.02,.51,2.1,.51,2.83,.07,1.96-1.31,1.74-2.76,2.1-1.38,.22-2.83,.58-4.21,1.38-1.02,.58-2.18,1.31-2.68,2.18-.58,.72-.73,1.45-.73,2.39v2.68c0,2.1-.65,2.32-2.61,2.32-3.12,0-1.81-1.74-2.61-3.7-.8-2.1-3.84-5.22-9.14-5.22-1.81,0-6.67,1.52-6.67,5.29,0,7.76,25.6,5.58,25.6,18.06,0,6.96-6.53,13.27-19.43,13.27-5.87,0-11.24-1.23-15.95-3.41-1.67-.8-1.38-1.38-1.38-3.19v-5.58c0-1.45,.36-1.45,1.81-1.6h2.47c1.31,.07,1.6,.15,1.6,1.45v1.23c0,3.48,5.29,8.56,10.51,8.56,4.57,0,7.69-3.41,7.69-6.45,0-9.5-25.6-6.02-25.6-18.49h0Z"/>
  <path class="cls-2" d="M48.06,5.52c.22-.65,.07-1.67-.22-2.54-.36-.94-.87-1.74-1.6-1.81-.58,0-.87,.72-1.02,1.52-.22,.72-.29,1.38-.22,1.89,.15,.58,.44,1.02,1.02,1.45,.72,.51,1.67,.58,2.03-.51h0Zm14.29,36.84c1.89,0,2.25-1.09,2.25-2.9,0-2.68,.07-5.66,.07-8.12h-9.93v7.69c0,2.1,.15,3.34,2.25,3.34,.36,0,.65,.29,.65,.58v.29c0,.36-.29,.58-.65,.58h-13.78c-.29,0-.58-.22-.58-.58v-.29c0-.29,.29-.58,.58-.58,1.67,0,2.03-1.89,2.03-3.41V21.83c0-1.38-.43-2.9-2.03-2.9-.29,0-.58-.29-.58-.65v-.29c0-.36,.29-.65,.58-.65h13.78c.36,0,.65,.29,.65,.65v.29c0,.36-.29,.65-.65,.65-2.54,0-2.25,.87-2.25,3.19v6.24h9.93c0-1.96-.07-4.5-.07-6.53,0-1.74-.44-2.9-2.25-2.9-.36,0-.65-.29-.65-.65v-.29c0-.36,.29-.65,.65-.65h13.78c.29,0,.58,.29,.58,.65v.29c0,.36-.29,.65-.58,.65-2.18,0-1.89,2.1-1.89,3.92v16.17c0,1.6,.07,3.34,1.89,3.34,.29,0,.58,.29,.58,.58v.29c0,.36-.29,.58-.58,.58h-13.78c-.36,0-.65-.22-.65-.58v-.29c0-.29,.29-.58,.65-.58h0Zm26.9-9.43v5.8c0,1.45,0,3.63,1.67,3.63,.36,0,.58,.29,.58,.58v.29c0,.36-.22,.58-.58,.58h-12.47c-.36,0-.58-.22-.58-.58v-.29c0-.29,.22-.58,.58-.58,1.81,0,2.18-.29,2.18-2.25V21.4c0-1.89-.36-2.47-2.18-2.47-.29,0-.58-.29-.58-.65v-.29c0-.36,.29-.65,.58-.65h15.16c7.03,0,9.94,2.1,9.94,6.45,0,3.84-3.26,6.24-6.31,7.03-.44,.07-.73,.15-1.02,.22-.8,.15-.8,0,.07,.07,.22,.07,.58,.07,.94,.15,1.96,.43,3.19,1.52,4.28,3.63,.94,1.89,1.81,3.7,2.76,5.58,.65,1.31,1.81,2.61,2.47,2.61,.51,0,.72,0,.72,.65,0,.73-.43,.73-1.23,.73h-2.68c-4.71,0-5.44-1.38-7.54-5.66-.8-1.74-1.6-3.48-2.54-5.22-.36-.58-.65-.65-1.38-.65h-2.83Zm0-3.26h2.32c2.68,0,4.35-2.18,4.35-4.93,0-2.54-1.74-5.15-4.42-5.15h-2.25v10.08h0Zm27.63-9.79c2.47,0,4.35,2.68,4.35,5.8,0,.36-.07,.8-.14,1.16h-8.77c0-3.26,1.23-6.96,4.57-6.96h0Zm-.14-2.9c-8.41,0-12.84,5.44-12.84,12.84s5.22,12.55,12.18,12.55c5,0,9.06-2.18,11.24-5.73,.65-1.16,.65-2.03,.29-2.39-.8-.58-1.6-.44-2.76,.94-1.16,1.52-3.26,2.25-5.58,2.25-2.03,0-3.84-.8-5.08-2.1-1.67-1.67-2.1-3.77-1.96-6.09h14.58c.94,0,1.52-.36,1.81-.94,.36-.73,.36-1.67,.22-2.61-1.23-5.95-5.15-8.7-12.11-8.7h0Zm31.54,28.64c1.02,0,.94-1.23,.58-1.81l-8.85-13.13v10.3c0,.8,.22,1.67,1.38,1.67,.29,0,.58,.29,.58,.58v.29c0,.36-.29,.58-.58,.58h-12.84c-.36,0-.58-.22-.58-.58v-.29c0-.29,.22-.58,.58-.58,1.38,0,2.18-.07,2.18-1.67V21.33c0-1.74-.51-2.25-2.18-2.25-.29,0-.58-.29-.58-.65v-.36c0-.29,.29-.58,.58-.58h13.05c.29,0,.58,.29,.58,.58v.36c0,.36-.29,.65-.58,.65-1.96,0-1.6,1.89-1.6,3.41v6.24l7.54-7.54c.94-.94,.51-1.74-.73-1.96-.22,0-.51-.07-.87-.07-.22,0-.43-.22-.43-.58v-.36c0-.36,.22-.58,.43-.58h11.02c.29,0,.51,.22,.51,.58v.36c0,.36-.22,.58-.51,.58-1.6,0-2.39,.51-3.55,1.67l-7.03,6.89,9.14,13.42c.87,1.31,3.19,4.5,4.86,4.5,.29,0,.58,.22,.58,.51v.29c0,.22-.29,.51-.58,.51h-12.11c-.36,0-.58-.29-.58-.51v-.29c0-.29,.22-.51,.58-.51h0ZM1.14,5.66c-.22-.65-.07-1.74,.36-2.68,.36-1.02,1.09-1.89,1.96-1.96,.65-.07,1.02,.72,1.23,1.6,.15,.8,.29,1.52,.15,2.1-.15,.58-.51,1.09-1.23,1.52-.87,.51-2.03,.58-2.47-.58h0Zm4.28,13.85c0-2.54,.87-4.64,2.32-6.24,1.01-1.16,1.09-2.03,0-3.41-1.09-1.31-2.18-1.67-3.77-1.67-1.74,0-3.26,.15-3.84-1.38-.29-.94-.07-2.54,.51-3.99C1.22,1.38,2.3,.08,3.54,0c.8-.07,1.52,.43,2.32,1.6,1.01,1.67,2.18,4.13,3.84,5.58,2.47,1.89,3.26,2.39,5.73,1.67,2.97-.94,6.31-1.23,9.14-1.23,3.19,0,6.38,.36,9.57,.73,1.81,.29,3.48,.44,4.5,0,1.38-.73,2.39-1.96,3.26-3.19,1.02-1.45,1.74-2.97,2.54-3.92,.58-.73,1.16-1.09,1.67-1.02,1.23,.14,2.25,1.6,2.9,3.12,.36,1.09,.51,2.18,.51,2.83,.07,2.03-1.31,1.81-2.76,2.1-1.38,.29-2.83,.65-4.21,1.45-1.02,.58-2.18,1.31-2.68,2.1-.58,.8-.73,1.52-.73,2.46v2.68c0,2.1-.65,2.25-2.61,2.25-3.12,0-1.81-1.67-2.61-3.63-.8-2.18-3.84-5.22-9.14-5.22-1.81,0-6.67,1.52-6.67,5.22,0,7.9,25.6,5.66,25.6,18.06,0,6.96-6.53,13.34-19.43,13.34-5.87,0-11.24-1.23-15.95-3.41-1.67-.8-1.38-1.38-1.38-3.26v-5.51c0-1.45,.36-1.52,1.81-1.6,.8-.07,1.67-.07,2.47,0,1.31,.07,1.6,.07,1.6,1.38v1.31c0,3.48,5.29,8.56,10.51,8.56,4.57,0,7.69-3.48,7.69-6.45,0-9.5-25.6-6.02-25.6-18.49h0Z"/>
</svg>